<svg width="10" height="6" viewBox="0 0 10 6" fill="none" xmlns="http://www.w3.org/2000/svg">
<path fill-rule="evenodd" clip-rule="evenodd" d="M1.19869 0.6C1.45693 0.403111 1.82588 0.452844 2.02277 0.71108L4.9567 4.55919C5.02974 4.60755 5.13639 4.60755 5.20944 4.55919L8.14337 0.71108C8.34026 0.452844 8.70921 0.403112 8.96744 0.6C9.22568 0.796888 9.27541 1.16584 9.07852 1.42408L6.13447 5.28546C6.10011 5.33052 6.04812 5.39288 5.97611 5.45255C5.46301 5.8777 4.70312 5.8777 4.19003 5.45255C4.11801 5.39288 4.06602 5.33052 4.03167 5.28546L1.08761 1.42408C0.890723 1.16584 0.940455 0.796888 1.19869 0.6Z" fill="white"/>
</svg>
