<svg width="9" height="6" viewBox="0 0 9 6" fill="none" xmlns="http://www.w3.org/2000/svg">
<path fill-rule="evenodd" clip-rule="evenodd" d="M8.20263 5.31578C7.94439 5.51267 7.57544 5.46294 7.37855 5.2047L4.44462 1.35659C4.37158 1.30823 4.26493 1.30823 4.19188 1.35659L1.25795 5.2047C1.06107 5.46294 0.692114 5.51267 0.433878 5.31578C0.175641 5.11889 0.125909 4.74994 0.322797 4.4917L3.26685 0.630317C3.30121 0.585256 3.3532 0.522894 3.42521 0.463225C3.93831 0.0380759 4.6982 0.0380759 5.2113 0.463225C5.28331 0.522894 5.3353 0.585256 5.36966 0.630317L8.31371 4.4917C8.5106 4.74994 8.46087 5.11889 8.20263 5.31578Z" fill="#3C4242"/>
</svg>
